# xmcd CD database file
#
# Track frame offsets:
#	300
#	16944
#	34490
#	50191
#	68016
#	87284
#	103034
#	120082
#	139139
#	154748
#	170948
#
# Disc length: 2496 seconds
#
# Revision: 0
# Processed by: cddbd v1.5.2PL0 Copyright (c) Steve Scherf et al.
# Submitted via: CDex 1.70
#
DISCID=9609bc0b
DTITLE=Cardets and friends - Homeless
DYEAR=2015
DGENRE=Country
TTITLE0=Old Dought Lady
TTITLE1=Too Much Love
TTITLE2=Homeless
TTITLE3=Long, Long Road
TTITLE4=Eighteen Wheels And A Dozen Roses
TTITLE5=Stop Smoking!
TTITLE6=Dancing (In The Line)
TTITLE7=Highway 40 Blues
TTITLE8=Drug Dog
TTITLE9=Keep Away
TTITLE10=Thank God For The Radio
EXTD=YEAR: 2015
EXTT0=
EXTT1=
EXTT2=
EXTT3=
EXTT4=
EXTT5=
EXTT6=
EXTT7=
EXTT8=
EXTT9=
EXTT10=
PLAYORDER=
